<?xml version="1.0" encoding="UTF-8"?>
<svg version="1.1" viewBox="0 0 1600 900" width="1742" height="980" xmlns="http://www.w3.org/2000/svg">
<path transform="translate(0)" d="m0 0h1600v900h-1600z" fill="#FDFDFD"/>
<path transform="translate(955,149)" d="m0 0h458l13 4 10 9 5 10 1 5v173l2 6 27 4h27l22-3 5-1h7l9 4 6 7 2 4 1 6v42l-3 10-9 10-8 7-32 32-10 4h-7l-10-4-27-27-2-1v302l-2 10-6 10-9 7-9 3-414 1-7 13-9 12-8 7-10 7-13 6-14 4-8 1h-13l-13-2-16-6-10-6-4-1-12 7-13 5-15 3h-15l-16-3-13-5-10-6-9-7-10-11-8-13-3-9-14 1h-212v-119l13-1-11-4-7 2-10 4-11 5h-4v113h-109l-25-1 1-10 5-20 5-16 5-17 4-10 5-12 9-19 9-15 6-9 11-13 3-4h2v-2l13-10 10-6 16-6 5-1 20-1 19 4 15 6 16 8 25 13 8 4 17 6 12 3h20l17-4 16-8 11-8 14-15 10-15 12-20 13-24 6-9 9-14 7-9 12-14 11-10 5-4h3v-2l19-10 19-6 16-3h29l16 3 14 5 14 8 16 12 10 10v2l2-1v-336l2-10 4-8 7-7 8-4z" fill="#CFAFF3"/>
<path transform="translate(872,511)" d="m0 0 5 1 2 2v6l-1 2h-8l-1-1h-17l-43 1-25 1-5 4-5 2-2 3 14 1v75l23-2h13l1-3 9-2 23-13 7-4h2v-56h18l1 43 5-2 16-9 12-7 1-3 5-2 3 3-2 4-8 2-25 14-5 3h-2v111l-2 2-6-1-10-6-6-3-14-4-10-1h-14l-16 3-16 7-9 6-3 3-7 6-10 13-5 11-4 11-2 13v14l3 16v4l-13 1h-212v-119l13-1-11-4-7 2-10 4-11 5h-4v113h-18v-105l-10 5-12 4-7 3-2-1 5-3 25-10v-24l2-2h16l1 1 1 17 32-13h2l1-4 4-1 3 2v2l9 3 47 15 8 1 33-6 2-1 12-1 10-2 19-14 15-11 2-4 1-4 5-5 18-26 6-8 1-4 3-1 2-4 11-16 3-5h2l2-5 6-9 3-6 5-5 2-4h2l3-13 1-1h7l7 2h21l45-2 15-1z" fill="#AAC1ED"/>
<path transform="translate(821,671)" d="m0 0h14l13 2 13 4 11 6 6 3 4-1 9-6 10-4 10-3 7-1h18l17 4 10 4 14 9 15 15 8 14 6 17 1 7v23l-5 19-7 13-9 12-8 7-10 7-13 6-14 4-8 1h-13l-13-2-16-6-10-6-4-1-12 7-13 5-15 3h-15l-16-3-13-5-10-6-9-7-10-11-8-13-5-13-3-16v-14l3-16 5-13 6-10 11-13 4-3h2l1-3 13-8 16-6z" fill="#FAB807"/>
<path transform="translate(955,149)" d="m0 0h458l13 4 10 9 5 10 1 5v36h-517v-33l2-10 4-8 7-7 8-4z" fill="#3B1960"/>
<path transform="translate(777,492)" d="m0 0h2l-2 8-4 1 1 3-1 1-1 8 1 3-3 11-1 2h-2l-2 5-5 5-2 5-6 9-3 5h-2l-2 5-12 17-5 6-2 4-10 15-16 22h-2l-1 5-1 4-13 9-19 14-3 2-10 2-12 1-7 2-30 5-16-4-43-14-6-5h-4l-1 4-34 14h-1l-1-18h-16l-1 2v23l-8 4-21 8v1l13-5 12-5 4-1v104l-30 1h-61l-25-1 1-10 5-20 5-16 5-17 4-10 5-12 9-19 9-15 6-9 11-13 3-4h2v-2l13-10 10-6 16-6 5-1 20-1 19 4 15 6 16 8 25 13 8 4 17 6 12 3h20l17-4 16-8 11-8 14-15 10-15 12-20 13-24 6-9 9-14 7-9 12-14 11-10 5-4h3v-2z" fill="#C7EDF3"/>
<path transform="translate(158,422)" d="m0 0h302l10 5 7 8 3 6 1 5v8l-4 12-8 8-9 4h-301l-10-3-10-9-4-10v-11l3-9 8-9 8-4z" fill="#624681"/>
<path transform="translate(480,647)" d="m0 0h16l1 1 1 17 32-13h2l1-4 4-1 3 2v2l9 3 50 16 24 8h13l18-13 2-2 4 1 6-1h10l6 1 2 1-1 1-15 1h-2v2h2l1 2v107l-3 1-24 1h-115v-119l13-1-11-4-7 2-10 4-11 5h-4v113h-18v-105l-10 5-12 4-7 3-2-1 5-3 25-10v-24z" fill="#B4CAEF"/>
<path transform="translate(823,684)" d="m0 0h13l14 3 12 5 11 8 9 9 7 10 5 12 3 15v12l-3 15-8 16-7 9-11 10-16 8-11 3h-23l-15-4-12-7-11-9-6-7-6-10-5-13-2-12v-10l3-15 5-12 7-11 11-11 14-8 15-5z" fill="#FBB908"/>
<path transform="translate(824,477)" d="m0 0h29l16 3 14 5 14 8 16 12 10 10v2h2l1 3v27l-2 4v-2l-7 1-1 4-14 8-17 10-3-1v-43h-18v56l-22 12-12 7-7 1-1 2-29 2h-7v-75h-16l5-6 5-2 4-3 25-1 43-1h17l1 1 8 1v-8l-3-2-4 1-3 2-31 2-29 1h-23l-5-2-9-2 1-9 1-4 4-1-1-3 2-2 1-4 13-6 20-6z" fill="#9DA4ED"/>
<path transform="translate(1436,356)" d="m0 0h8l27 4h27l22-3 5-1h7l9 4 6 7 2 4 1 6v42l-3 10-9 10-8 7-32 32-10 4h-7l-10-4-29-29-8-7-10-10-4-8-1-4v-45l3-9 7-7z" fill="#3B1960"/>
<path transform="translate(864,528)" d="m0 0h18l1 43 5-2 16-9 12-7 1-3 5-2 3 3-2 4-8 2-25 14-5 3h-2v111l-2 2-6-1-10-6-6-3-14-4-10-1h-14l-16 3-16 7-9 6-3 3-8 7h-1v-87l-29 2-6 2-1 1-8 1-24 18-2-1 4-4 18-13 5-5 2-3 5 1h12l24-1-1-74 3-3 16 1v75l23-2h13l1-3 9-2 23-13 7-4h2z" fill="#692BA9"/>
<path transform="translate(919,684)" d="m0 0h14l14 3 12 5 10 7 9 8 8 11 6 15 2 9v20l-4 15-7 13-7 9h-2v2l-12 9-12 6-12 3h-23l-12-3-8-4 6-8 7-9 5-10 11 2h9l12-4 7-5-2-4-4-3-9 6-2 1h-13l-5-2 2-12 6-2h9v-6h-13l-1-9 1-1h13v-6h-14l-2-6-1-6 3-2 10-1 10 3 5 4 4-1 3-3-1-3-10-6-8-2h-10l-10 2-7-13-9-11-2-1 1-3 9-4z" fill="#FBB908"/>
<path transform="translate(1119,497)" d="m0 0h117l5 3v60l-3 3h-120l-3-3v-59z" fill="#AE8CD2"/>
<path transform="translate(1283,497)" d="m0 0 118 1 2 2v61l-2 2h-121l-2-2v-61z" fill="#AF8CD3"/>
<path transform="translate(955,498)" d="m0 0h121l2 2v61l-3 2h-120v-2h-2v-61z" fill="#B08DD4"/>
<path transform="translate(757,611)" d="m0 0h11l1 88-6 7-4 6-6 14-3 11-1 8v14l3 16v4l-13 1h-19l-3-1-1-146-2-1v-4h3v-3l-5 3-2 3 2 1v6l-1 2h-2l-2-4-3 1v7h-3l-1-3v-7l13-10 11-8 8-1 2-2 5-1z" fill="#A7B1ED"/>
<path transform="translate(546,662)" d="m0 0 5 2 16 6 11 5 2 5 8-1 2-3 5-1h10l5 3 4 2-3 1v7l-2 3 1 2 1 82-1 3h8l-1 2h-90v-1h18v-116z" fill="#BEDAF1"/>
<path transform="translate(862,586)" d="m0 0h2l1 10-1 83-19-6-10-1h-14l-16 3-16 7-3 1v-73l4-1 15-1h16l6 1 1-2h2l2-4 23-13z" fill="#9DA3ED"/>
<path transform="translate(362,422)" d="m0 0h98l10 5 7 8 3 6 1 5v8l-4 12-8 8-9 4h-97v-1l14-1-1-2 7-1-3-2-1-7-2-1v-4l4-1 1 2 3 1 1 5 3-1v-7l2-3-1-2v-6l1-3-2-2v15l-1 2-5-1-5-6v-2h-2v9h-4v-18h5l6 8v-6l-2-1 1-4-5-2-1-7 1-4 7-1-22-1z" fill="#7D72E1"/>
<path transform="translate(792,389)" d="m0 0 3 1-7 27-3 8-3-1-4-5-4 2-86 86h-2v-2h-2v-2l-4-2-9-9v-2l-4-2-3-3v-2l-4-2-2-3-4 2-93 93-4-1-8-8 6-7 101-101 4 2 26 26h4v-2h2v-2l8-7 5-5 6-7 8-7 46-46-2-4-4-3v-3z" fill="#8076E3"/>
<path transform="translate(777,492)" d="m0 0h2l-2 8-4 1 1 3-1 1-1 8 1 3-3 11-1 2h-2l-2 5-5 5-2 5-6 9-3 5h-2l-2 5-12 17-5 6-2 4-10 15-16 22h-2l-1 5-1 4-13 9-19 14-3 2-10 2-12 1-7 2-14 1-1-3-3 1h-7v-2l2-2-1-5 2-2 13-1 7-2 16-5 11-6 11-8 14-15 10-15 12-20 13-24 6-9 9-14 7-9 12-14 11-10 5-4h3v-2z" fill="#ABC3EE"/>
<path transform="translate(924,552)" d="m0 0 2 4-1 115-17 3-13 4-9 5-3 1-1-3v-104l1-3 27-15 7-4 6-1z" fill="#9092E7"/>
<path transform="translate(154,423)" d="m0 0h160v1l-51 1h-58l-7 2v3 9l-3 3-2 11-1 7h4l2-6v-13l2-2h11l-5 5v6l9 3-1 2-9-1v3l10 1 3-2v-5l-8-4v-3l7 1v-4l3 1 1 2 5 1v14h5v-7l1 3h2v4l5-1 1-2h8l1 2 5-1 4 1 1-5 4 2 2 3 4 2-4 1-3-1-1-2-2 5 5-2-1 3v7l12 1v2l-20 1 35 1v1h-136l-8-4-7-7-4-10v-11l3-9 8-9z" fill="#3A185F"/>
<path transform="translate(205,424)" d="m0 0h104l1 2v9l-1 2 2 1-1 3h-2v4h-5v13l-4 1-1-13h-3l2 1v10l1 2 9-1-3-3v-8l4-1 1 6v7l2 2-3 1 1 1v8 3l2 1 12 1v1h-33l-36-1 1-2h20v-2h-8l-4-1-1-8h-3l1-5 2-1v3h6l-5-3-4-4v5l-4 1h-3l-4-1v-2h-8l-1 3h-5v-4h-2l-1 4h-5v-14h-5l-3-3-1 4-7-1 1 2 7 3 1 1v5l-4 3h-6l-4-2v-3h9l-3-2-5-2-1-6 3-4h-8l-1 2v13l-3 6-5-1 1-7 2-11 3-3v-9l-3-2 5-3z" fill="#692AAB"/>
<path transform="translate(1251,690)" d="m0 0h101l6 4 2 4v22l-5 6-3 1h-101l-6-4-2-4v-21l4-6z" fill="#B5080F"/>
<path transform="translate(1015,690)" d="m0 0h100l6 3 3 7v17l-3 7-5 3h-101l-5-3-3-5v-21l4-6z" fill="#3C1A61"/>
<path transform="translate(1006,167)" d="m0 0h130l2 2v26l-3 2h-128l-3-3v-25z" fill="#4B1F76"/>
<path transform="translate(480,273)" d="m0 0 13 2 9 5 9 9 4 9 1 4v11l-3 9-6 9-9 7-7 3-5 1h-11l-10-3-9-6-7-8-4-11v-13l4-10 7-9 10-6 6-2z" fill="#491E74"/>
<path transform="translate(337,158)" d="m0 0h28l14 3 10 6 7 8 3 7 1 5v9l-3 10-6 8-8 6-7 3-11 2h-28z" fill="#491D74"/>
<path transform="translate(527,655)" d="m0 0 10 3 6 2v1h-16v118h-30v-112l10-4 14-5z" fill="#BEDBF1"/>
<path transform="translate(824,477)" d="m0 0h29l16 3v5h-2l2 14 1 4-3 4 2 3-1 5-31 2-29 1h-23l-5-2-9-2 1-9 1-4 4-1-1-3 2-2 1-4 13-6 20-6z" fill="#9EA5ED"/>
<path transform="translate(1244,450)" d="m0 0h135l33 1v16l-1 1h-195l-1-1v-16z" fill="#624680"/>
<path transform="translate(918,671)" d="m0 0h18l17 4 10 4 14 9 15 15 8 14 6 17 1 7v23l-5 19-7 13-9 12-8 7-10 7-13 6-14 4-8 1h-13l-13-2-16-6-7-4 7-7 5 1 15 5 4 1h22l12-3 10-4 5-3h2v-2l5-3 5-4 8-10 6-10 4-11 2-10v-16l-3-15-6-14-10-13-8-7-14-8-11-4-15-2-15 1-11 3-9 4-5-1-5-5 5-4 8-4 14-4z" fill="#FBB908"/>
<path transform="translate(954,451)" d="m0 0h196v16l-1 1h-194l-1-1z" fill="#624680"/>
<path transform="translate(593,275)" d="m0 0h17l13 23 5 10 3-4 12-22 4-7h17v66h-16v-37h-2l-2 6-14 25h-3l-16-29-1-2-1 37h-16z" fill="#491D74"/>
<path transform="translate(868,481)" d="m0 0 7 1 9 4 13 7 16 12 10 10v2h2l1 3v27l-2 4v-2l-7 1-1 4-14 8-17 10-3-1v-43h-18v-1l10-1-3-3-1 3-4-2 3-1 1-2 8 1v-8l-3-2-6 1-3-5 3-5-2-11-1-3 2-5z" fill="#9294E7"/>
<path transform="translate(924,681)" d="m0 0 15 1 11 3 16 8 7 5 5 5 10 13 7 17 2 12v16l-4 16-6 12-7 9-6 7-5 4h-3v2l-14 7-9 3-6 1h-22l-16-5-4-2-5 1-5 4-5-2v-4l5-4 1-2h2l2-4 7-9 7-14 4-15 1-9v-11l-1-8v-9h-2l-5-13-8-13-11-12-4-4 6-3 7 5 5-1 9-4 9-2zm-5 3-16 4-8 4v2l5 5 8 10 5 10 10-2h10l10 3 9 6-2 4-2 2-4-1-6-4-8-2-10 1-3 2 2 11 1 1h14v6h-13l-1 2 1 8h13v6h-11l-4 2-2 12 5 2h13l10-6h3l4 4-1 3-8 5-10 3h-9l-11-2-5 10-10 13-3 4 8 4 12 3h23l12-3 14-7 10-8v-2l3-1 9-13 5-11 3-12v-20l-4-15-5-10-9-12-12-10-14-7-10-3-7-1z" fill="#B27D02"/>
<path transform="translate(198,158)" d="m0 0h33l8 2 7 4 5 6 2 5v12l-4 8-7 6h-2l5 9 9 12v3h-17l-8-10-7-10-8-1v20l-1 1h-15l-1-1v-65z" fill="#491D74"/>
<path transform="translate(526,275)" d="m0 0h38l8 3 5 5 4 6 1 4v8l-2 8h-2l-2 4-5 4-2 2 14 20v2h-18l-13-18-1-2h-8l-1 20h-16z" fill="#4A1F75"/>
<path transform="translate(477,675)" d="m0 0h2v104h-30l-1-79-8-1 2-4 8-9 13-5 12-5z" fill="#C7ECF2"/>
<path transform="translate(440,158)" d="m0 0h16l9 11 10 14 9 12 1-36 1-1h15l1 1v65l-1 1h-16l-14-19-13-18-1-1-1 38h-16z" fill="#4A1D76"/>
<path transform="translate(864,528)" d="m0 0h18l1 43 5-2 16-9 12-7 1-3 5-2 3 3-2 4-8 2-25 14-5 3h-2v111l-2 2-6-1-11-7z" fill="#692BA9"/>
<path transform="translate(480,647)" d="m0 0h16l1 1 1 17 32-13h2l1-4 4-1 3 2v2l9 3 50 16 24 8h13l18-13 2-2 3 1-10 8-11 8-2 6-1 1-7-1-1-4-36-12-49-16-4 1h-9l-8 4-14 5-6 3h-4v113h-18v-105l-10 5-12 4-7 3-2-1 5-3 25-10v-24z" fill="#6A2BAB"/>
<path transform="translate(720,621)" d="m0 0h17l1 2v156h-18z" fill="#692BA9"/>
<path transform="translate(487,608)" d="m0 0 10 1 14 3 15 6 16 8 25 13 8 4 17 6 12 3 19 1v1l-13 1-1 2 1 5-3 1v2l10-1 1 2h7l-3 2-20 3-16-4-43-14-6-5h-4l-1 4-6-3-7-3-3-7-7-2-7-5-5-3v-8h-4l-1 8 6 2v5l-4-1-1-4h-3l-3-9-2-1v-3l-2-1 2-1-1-5-6-1v-1z" fill="#BFDDF1"/>
<path transform="translate(285,158)" d="m0 0h18l5 11 21 53v3h-18l-4-9-27-1-1 5-3 5h-17l1-6 11-27 13-33z" fill="#491D74"/>
<path transform="translate(1436,356)" d="m0 0h8l27 4h27l22-3 5-1h7l9 4 6 7 2 4 1 6v42l-3 10-9 10-8 7-32 32-10 4h-7l-10-4-29-29-8-7-10-10-4-8-1-4v-45l3-9 7-7zm0 7-6 4-3 4-1 3v48l6 9 8 7 34 34 5 3h11l6-4 34-34 2-1v-2l4-2 6-8 1-3v-47l-3-6-5-4-2-1h-10l-20 3-19 1-19-1-19-3z" fill="#401F64"/>
<path transform="translate(277,275)" d="m0 0h19l5 11 12 31 9 22v2h-18l-4-8v-2h-27l-3 10h-18l1-6 22-56z" fill="#491D74"/>
<path transform="translate(135,275)" d="m0 0h39l8 4 5 5 3 5 1 3v11l-4 8-7 6-8 3-20 1-1 20h-16z" fill="#4A1F74"/>
<path transform="translate(543,157)" d="m0 0h10l13 4 8 6v3l-10 9-11-6h-9l-8 4-4 5-2 5v9l4 8 5 4 5 2h8l7-2v-9h-14v-12h30v28l-6 5-8 4-8 2h-10l-10-3-9-6-8-9-4-12v-9l3-10 6-8 8-7 10-4z" fill="#491E74"/>
<path transform="translate(825,710)" d="m0 0h8l1 5 13 5 7 5-5 8-14-7h-1v20l13 5 7 6 2 5v10l-4 8-6 5-12 3-1 6h-8v-7l-8-1-12-6-3-4 6-7 10 6 7 3v-23l-7-1-8-5-4-5-1-2v-11l3-6 8-7 5-2h4z" fill="#B37F02"/>
<path transform="translate(527,662)" d="m0 0h18v117h-18z" fill="#692BA9"/>
<path transform="translate(385,275)" d="m0 0h52v14l-35 1-1 11h33v15h-33v25h-16z" fill="#4A1E75"/>
<path transform="translate(205,424)" d="m0 0h54l-2 2 1 3 8 1 3-1 2 8 8 2v-2h2v2l4 1v1l-14 1v2l5 1v14h5l-2 2-3 2-1-4-3-1v-6-3l-1 3-1 1 1 4h-3l-2-5 2-2v-6l-3-2h-10l-1 15-2 2-4-1v-2h-8l-1 3h-5v-4h-2l-1 4h-5v-14h-5l-3-3-1 4-7-1 1 2 7 3 1 1v5l-4 3h-6l-4-2v-3h9l-3-2-5-2-1-6 3-4h-8l-1 2v13l-3 6-5-1 1-7 2-11 3-3v-9l-3-2 5-3z" fill="#4A1F76"/>
<path transform="translate(767,536)" d="m0 0h1v73l-7 1-17 1h-12l-5-1-4 6-15 11-2-1 6-7 3-7 4-5 5-8h2l4-8h2l2-4 5-9 5-8h2l2-5 7-10 10-14z" fill="#A7B3EE"/>
<path transform="translate(777,492)" d="m0 0h2l-2 8-4 1 1 3-1 1-1 8 1 3-3 11-1 2h-2l-2 5-5 5-2 5-6 9-3 5h-2l-2 5-12 17-5 2-2-5-4-2-2-4-1-5 4-1 3 1-1-12h-3l1-5 9-14 7-9 12-14 11-10 5-4h3v-2z" fill="#A8B6EF"/>
<path transform="translate(672,668)" d="m0 0h17l1 2v109h-18z" fill="#692AAB"/>
<path transform="translate(1436,363)" d="m0 0h10l19 3 21 1 26-2 11-2h10l6 4 3 4 1 3v47l-4 8-5 5h-2v2l-8 7-30 30-4 2h-11l-8-6-32-32-9-8-4-7v-48l3-6 5-4zm4 4-6 3-3 5v46l3 5 8 7 36 36 2 1h9l8-7 31-31 3-2v-2l4-2 3-5v-47l-4-5-6-2-25 4h-37z" fill="#E8DDF4"/>
<path transform="translate(319,275)" d="m0 0h57v14h-20v52h-16l-1-1v-51h-20z" fill="#4B2075"/>
<path transform="translate(132,158)" d="m0 0h56v15h-20v52h-16v-52h-20l-1-3v-11z" fill="#4A1E76"/>
<path transform="translate(575,687)" d="m0 0h18v92h-18z" fill="#692BA9"/>
<path transform="translate(199,275)" d="m0 0h17v51h31l1 1v14h-49z" fill="#4A1E76"/>
<path transform="translate(624,694)" d="m0 0h17v85h-18v-84z" fill="#692BA9"/>
<path transform="translate(751,780)" d="m0 0 3 1 8 16 11 13 7 6 9 6 17 7 16 3h15l15-3 17-7 8-5 7 3 14 7 13 4 9 1h13l16-3 13-5 11-6 11-10 5-5 7-10 5-10 4 1v3l-3 1-4 8 2 1-1 7h-3v5l-7-1-4 5-12 10v2l-15 5h-2v5l-6 3h-6l-2-2 8-1v-2l-20 4-8-1-7 1-1-2-16-4 3 3 10 2-1 2h-8l-10-4v-3h2l-1-2-12-3-1-4-4 1-2 4-6 1-5 1-2 3 1 5-5 1v-2l-9 1-4 1h-21l-2-1-2 1h-15l-7-3-3-3-1-3-4-1v5h-5l1-4 2-4-7 1-2-1 1-6-6 2-2-1v-3l3-1-1-3-3-1-2 4-2-4 3-1v-2h-2l-4-4-1 3-4-1v-9l-6-2-2-3 1-4 2 1-2-5z" fill="#FCFDF7"/>
<path transform="translate(953,450)" d="m0 0h291v1h-29l1 17-67 1 1-18h-196l1 17h-2z" fill="#B08DD4"/>
<path transform="translate(431,699)" d="m0 0h17l1 2-1 78h-17l-1-71 1-2z" fill="#6A2AAB"/>
<path transform="translate(217,441)" d="m0 0 3 1 1 2 5 1v14h5v-7l1 3h2v4l5-1 1-2h8l1 2 5-1 4 1 1-5 4 2 2 3 4 2-4 1-3-1-1-2-2 5 5-2-1 3v7l12 1v2l-20 1 35 1v1h-55l-33-1-3-2v-13l5 1-1-3 9 2 2 1 1-2v2h2l1-2 2-2-1-3-2-5-7-3v-3l7 1z" fill="#4A1E75"/>
<path transform="translate(872,511)" d="m0 0 5 1 2 2v6l-1 2h-8l-1-1h-17l-43 1-25 1-5 4-5 2-2 3-3 1-4 9-9 13-7 10-3 5h-2l-2 6-6 8-4 7-2 1-4 7h-2l-2 4-5 8-3 4-2 5-8 10-4 2-1 4-16 11-19 14-4 1 5-5 18-13 12-9 2-4 1-4 5-5 18-26 6-8 1-4 3-1 2-4 11-16 3-5h2l2-5 6-9 3-6 5-5 2-4h2l3-13 1-1h7l7 2h21l45-2 15-1z" fill="#88C4B7"/>
<path transform="translate(913,566)" d="m0 0h12v105l-13 1z" fill="#692AAB"/>
<path transform="translate(826,681)" d="m0 0 15 1 12 3 16 8 13 12 4 5 8 13 5 17v25l-6 18-7 11-9 10-7 6-15 8-15 4h-21l-13-3-16-8-9-7-10-11-8-15-4-14v-24l3-11 4-9 5-9 12-13 10-7 12-6 12-3zm-3 3-14 3-12 5-11 7-11 11-8 14-4 11-2 12v10l3 15 5 12 7 11 7 7 11 8 12 6 12 3h23l16-5 12-7 12-11 9-14 5-13 2-11v-12l-3-15-6-13-4-6-9-10-7-6-10-6-11-4-11-2z" fill="#B37F02"/>
<path transform="translate(486,632)" d="m0 0 5 1 4 5 35 14-3 2-29 12h-1l-1-18h-16l-1 2v23l-8 4-21 8-3 5-7 9-4 1-1-2 4-4-3-1-1-4 2-3 9 1 2-4 14-17 5-7h2l2-4 8-10 3-4 2-8z" fill="#8BBFC0"/>
<path transform="translate(477,288)" d="m0 0h7l8 4 5 6 2 5v10l-3 6-8 7-3 1h-9l-8-4-4-5-2-4v-12l3-6 5-5z" fill="#F9F7FB"/>
<path transform="translate(411,158)" d="m0 0h15l1 1v65l-1 1h-15l-1-1v-65z" fill="#4A1D76"/>
<path transform="translate(1514,385)" d="m0 0 7 1 1 2v6l-42 42-7-6-17-17v-5l3-3 7 1 11 11 6-1z" fill="#F4EFF9"/>
<path transform="translate(353,173)" d="m0 0h15l9 4 4 5 2 5v9l-4 8-5 4-6 2h-14l-1-1z" fill="#F5F1F9"/>
<path transform="translate(817,621)" d="m0 0h17v50l-18 1v-50z" fill="#692BA9"/>
<path transform="translate(1396,165)" d="m0 0h10l6 3 4 5 2 5-1 10-4 6-8 4h-8l-6-3-5-6-2-6 1-8 5-7z" fill="#F3EEF8"/>
<path transform="translate(663,636)" d="m0 0 4 2-1 6 5 2-1 2-9 1 2 5-2 7-10 2-12 1-7 2-14 1-1-3-3 1h-7v-2l2-2-1-5 2-2 13-1 7-2 16-5 11-6z" fill="#B4CEF0"/>
<path transform="translate(697,636)" d="m0 0h1v5l-5 5-3 4-1 3-2 1-1 8-4 3-6-1h-10l-7 1v-2l-5 3-18 13h-13l-17-6-7-2 3-1 20-3 15-3 2-1 12-1 4-1h8l13-10 17-12z" fill="#89C3B8"/>
<path transform="translate(1251,690)" d="m0 0h101l6 4 2 4v22l-5 6-3 1h-101l-6-4-2-4v-21l4-6zm1 2-5 3-2 3v22l5 5h103l5-5v-22l-4-5-2-1z" fill="#59367C"/>
<path transform="translate(539,653)" d="m0 0 9 2 43 14 14 5v1l-15 2-2 3-5 1-3-1-3-5-23-9-6-3-21-1v-1l13-1-11-4 1-2h8z" fill="#8ABFB3"/>
<path transform="translate(535,647)" d="m0 0 5 2v2l9 3 50 16 24 8h13l18-13 2-2 3 1-10 8-11 8-2 6-1 1-7-1-1-4-36-12-49-16-4 1h-9l-8 4-14 5-6 3h-4v112l-3-1h2l-1-111 1-5 2 3 32-13h2l1-4z" fill="#61447F"/>
<path transform="translate(477,675)" d="m0 0h2v104h-2l-1-15-3-1v-71l2-1 2 1-2-6 2-1z" fill="#B5CFEF"/>
<path transform="translate(717,621)" d="m0 0h2v158h-2l-1-146-2-1v-4h3v-3l-5 3-2 3 2 1v6l-1 2h-2l-2-4-3 1v7h-3l-1-3v-7l13-10z" fill="#A8B6EF"/>
<path transform="translate(687,661)" d="m0 0h1l2 8-18-1v111h18v1h-19l-5-1 3-1-1-7v-102h-2v-2l5-1 12-1z" fill="#A69CEA"/>
<path transform="translate(490,641)" d="m0 0 7 1 28 11v2l-27 11h-1l-1-18-14-1 3-5z" fill="#C3DBF1"/>
<path transform="translate(430,699)" d="m0 0h1l1 8-1 2v70h17v-78h1v79h-19l-1-68-11 14-9 11-6 8-2 8-5 2-4-3v-5l4-3 4-1 21-27 8-9z" fill="#99ACC7"/>
<path transform="translate(388,758)" d="m0 0h17l1 1v21h-18z" fill="#6C31A8"/>
<path transform="translate(1077,371)" d="m0 0 5 1v51h-7v-51z" fill="#AA0F1C"/>
<path transform="translate(877,817)" d="m0 0 7 3 22 11v1l-8-1 3 3 10 2-1 2h-8l-10-4v-3h2l-1-2-12-3-1-4-4 1-2 4-6 1-5 1-2 3 1 5-5 1v-2l-9 1-4 1h-7v-2l2-1h8l5-1v-2l-2-1 5-3 16-7z" fill="#FCFDF6"/>
<path transform="translate(152,289)" d="m0 0h14l5 2 3 3v7l-5 4h-18v-15z" fill="#F0EAF7"/>
<path transform="translate(671,632)" d="m0 0 4 1v7l7 1 1 1v-4l1-4 3-2h3v2h-2v3l6-2-1 3-17 12-14 10-1-2 1-5-1-4 7-2-4-4h2v-5h-2l1-4z" fill="#ACC3EE"/>
<path transform="translate(543,289)" d="m0 0h14l5 2 3 4-1 7-5 3h-17v-15z" fill="#ECE4F5"/>
<path transform="translate(1291,701)" d="m0 0h16l1 11 8 1v-12h3l1 4-1 8h8v3h-36z" fill="#A07FC2"/>
<path transform="translate(862,586)" d="m0 0h2l1 10-1 83-19-6-10-1-1-3 13 1 10 3v2h5v-82-3l-6 2-9 6-6 3-6 2v3l-4 2-5 5-5-2h-33l2-2 15-1h16l6 1 1-2h2l2-4 23-13z" fill="#9293E7"/>
<path transform="translate(1312,252)" d="m0 0h1v7l3 1v44l-3 1-1 4-1-4-2-1v-45h3z" fill="#412065"/>
<path transform="translate(1108,174)" d="m0 0h17l3 1 1 4-1 10h-22v-14z" fill="#7C6FDD"/>
<path transform="translate(214,173)" d="m0 0h15l6 3 1 2v6l-4 4-2 1h-16z" fill="#F2EDF7"/>
<path transform="translate(1399,172)" d="m0 0h5l2 3-1 5-1 1 7 4 2 3v3l-5 4-9 1-6-2-1-3-3-1 3-5 6-4-2-3 1-5z" fill="#3F1E63"/>
<path transform="translate(521,675)" d="m0 0 3 1 1 102-4 1-1-4z" fill="#C7EEF3"/>
<path transform="translate(411,158)" d="m0 0h15l1 1v65l-1 1h-15l-1-1v-65zm1 2v62l1 1h12v-63z" fill="#4E2F6F"/>
<path transform="translate(995,291)" d="m0 0 4 1v24 2 20h-6l-1-1v-43z" fill="#B80B0B"/>
<path transform="translate(486,158)" d="m0 0h15l1 1v65l-1 1h-16l-14-19-12-17 1-2 8 10 2 1 3 6h2l2 6 9 11v2h13l1-63h-13l1 32h-2z" fill="#49296B"/>
<path transform="translate(658,669)" d="m0 0 3 1 2 1 3-1 2 4-1 6 1 87-4-1-1-3 1-84 1-5-5-1z" fill="#ABC4EE"/>
<path transform="translate(477,651)" d="m0 0h1v23l-22 9-4-1 10-11 8-11h2l2-4z" fill="#CCE9F3"/>
<path transform="translate(1091,350)" d="m0 0h2v7l3 1v30l-3 1v12h-2v-12l-3-1v-30l3-1z" fill="#48286B"/>
<path transform="translate(385,275)" d="m0 0h52v2h-49v61h11v-22h2v25h-16z" fill="#48286A"/>
<path transform="translate(522,269)" d="m0 0h4l-1 6-2 2 1 21v26l-1 14h-2l-1-7-2-11 1-6-1-21 3-6-1-3v-10z" fill="#FCFDF6"/>
<path transform="translate(346,441)" d="m0 0h11l5 4 1 7-5 6-3 1h-9z" fill="#E8DEF4"/>
<path transform="translate(650,666)" d="m0 0 2 1-10 8-6 4h-13l-15-5v-1l30-5z" fill="#B7D0F0"/>
<path transform="translate(199,275)" d="m0 0h17v53l-3-1v-50h-9l-3 1-1 62h47v-13h1v14h-49z" fill="#553876"/>
<path transform="translate(757,611)" d="m0 0h11l1 88-6 7-4 6-6 14-3 11-1 8v14l3 16v4h-2l-3-12-1-21 3-17 3-7 2-6 5-8 2-5h2l1-4h2l1-87-3 1-7-1z" fill="#A68FDA"/>
<path transform="translate(539,653)" d="m0 0 9 2 43 14 5 2v1h-17l-16-6-25-10z" fill="#CBD6F0"/>
<path transform="translate(1367,254)" d="m0 0h1v7l3 1v31h-3v12h-1v-12h-3v-32h3z" fill="#432367"/>
<path transform="translate(132,150)" d="m0 0h41l5 2v2l2 1h-46l-5 1-2-1 1-3z" fill="#FCFDF6"/>
<path transform="translate(1036,308)" d="m0 0h1v7h3v32h-3l1 3-1 9h-1v-12l-3-1v-28l1-3h2z" fill="#432266"/>
<path transform="translate(981,264)" d="m0 0h1l1 6 2 1v31l-2 1-1 12h-1v-13h-3v-31h3z" fill="#422266"/>
<path transform="translate(1119,321)" d="m0 0h1v8h3v31h-3v12h-1v-12h-3v-31h3z" fill="#411D67"/>
<path transform="translate(402,158)" d="m0 0h3l2 4 1 20v42l-1 2-2-1-2-3v-16h-6v-2h3l1-2 4 3v-28l-2 5h-3l-1-5 3-2v-13z" fill="#FCFDF6"/>
<path transform="translate(1174,295)" d="m0 0h1l1 7 2 1v31l-2 1-1 12h-1v-13h-3v-31h3z" fill="#421E67"/>
<path transform="translate(1400,312)" d="m0 0h21l1 1v8h-23l-5-3-6-1v-1l8-2z" fill="#FDFDFD"/>
<path transform="translate(1243,296)" d="m0 0h1v7h3v31h-3v12h-1v-12h-3v-31h3z" fill="#411D66"/>
<path transform="translate(200,439)" d="m0 0h11l-5 5v6l9 3-1 2-9-1v3l10 1 6-5v6l-4 3-8-1-5-1v2l-3 1-2-5-1-9v-8z" fill="#401D66"/>
<path transform="translate(486,632)" d="m0 0 5 1 4 5 35 14-3 2-10-3-22-9-10 1-5 5h-3l5-7 2-8z" fill="#8BBFA8"/>
<path transform="translate(255,441)" d="m0 0h10l4 3v6l-2 4 2 5-5-1-5-5v5l-4 1-1-1v-16z" fill="#D0C0E1"/>
<path transform="translate(1047,346)" d="m0 0 7 1v31h-7z" fill="#B00B14"/>
<path transform="translate(372,441)" d="m0 0h5l6 8 1-8h4l1 8v8l-1 2-5-1-5-6v-2h-2v9h-4z" fill="#EADFF5"/>
<path transform="translate(310,441)" d="m0 0h11l4 4v5h-2l1 6v3l-5-1-2-4h-2l-1 5-4-1z" fill="#D8CBE6"/>
<path transform="translate(198,158)" d="m0 0h33l3 1v2h-34l-1 60 12 2v1h-14v-65z" fill="#4C2C6D"/>
<path transform="translate(1380,287)" d="m0 0 5 1v30l-1 1h-6v-31z" fill="#A71321"/>
<path transform="translate(376,292)" d="m0 0 7 3v41h-4l-1-3-1-39-2-1z" fill="#FCFDF6"/>
<path transform="translate(833,758)" d="m0 0 6 1 6 4 1 7-3 5-8 4-2-1z" fill="#FBB908"/>
<path transform="translate(191,277)" d="m0 0h2v2l4 1v43l-2 1-2-1v-9h-2v2h-5l3-5 5-2v-13l-1-2v-11l-5-1v-3l3-1z" fill="#FCFDF6"/>
<path transform="translate(332,441)" d="m0 0h6l6 15v3l-5-1-1-1-7-1-1 3h-4l1-6 4-8z" fill="#E1D5EE"/>
<path transform="translate(1109,171)" d="m0 0 10 1 7-1 4 4 1 8 1 2-1 4-3 2-11 1h-10l-3-2-2-3h-2l1-3 2-3 1-7zm-1 3-2 1v14h22l1-11-1-3-3-1z" fill="#6A2AAC"/>
<path transform="translate(649,275)" d="m0 0h15v66h-16v-33l1-5h1l1 34 3 1h7l1-1v-58l-1-3-8 1-2-1-1 2z" fill="#3F1E63"/>
<path transform="translate(490,641)" d="m0 0 7 1 23 9 1 2-5 1v2l-10 1-6-1-1-3 3-2 6 2 2-2-5-2h-6v-2-1h-16l2-4z" fill="#C7EEF3"/>
<path transform="translate(241,441)" d="m0 0h5l5 11 2 6-4 1-1-3h-8l-1 3h-4l1-6z" fill="#E0D4ED"/>
<path transform="translate(530,652)" d="m0 0 2 1-11 6-14 5-6 3h-4v112l-3-1h2l-1-111 1-5 2 3z" fill="#61457F"/>
<path transform="translate(745,452)" d="m0 0 2 1-1 4 3 5v1h-8l-6 3-3 1-1 3h-2l1 3 5 2-1 3-5 1-6-2-1 3h-2l-1 3-2-4 2-2h3l2-5 2-3 4-2 1-2h2v-2l7-4 2-4z" fill="#FCFDF6"/>
<path transform="translate(1200,290)" d="m0 0h5l1 1v25h-6l-1-1v-24z" fill="#AA0F1C"/>
<path transform="translate(337,158)" d="m0 0h28l14 3 10 6 7 8 3 7 1 5v9h-3v-11l-3-6-4-7-4-4-8-3-2-2-9-2-28-1-1 2z" fill="#452468"/>
<path transform="translate(1022,332)" d="m0 0h2v5l3 1v23h-7v-23h2z" fill="#A51323"/>
<path transform="translate(877,817)" d="m0 0 7 3 22 11v1l-8-1 3 3 10 2-1 2h-8l-10-4v-3h2l-1-2-12-3-1-4-5-1z" fill="#FAFBF6"/>
<path transform="translate(132,158)" d="m0 0h56v14h-2v-11l-53-1v11h18v1h-20v-13z" fill="#4A2B6C"/>
<path transform="translate(863,579)" d="m0 0h1v5l-22 12-12 7-7 1-1 2-29 2h-7v-2h6l2-1h13l13-1v-2l9-3 12-5 11-6 2-1v-3l7-1z" fill="#B08DD4"/>
<path transform="translate(396,441)" d="m0 0 9 1v3l-9 1v6l5 2h2v-2l-4-1v-2h8v6l-3 3h-8l-5-3-1-2v-6l5-5z" fill="#EFE8F7"/>
<path transform="translate(339,150)" d="m0 0h12l3 2v2l9-1v-2l9 1 7 2-2 3-2 1-9-2h-27l-4 1-2-1 1-4z" fill="#FCFDF6"/>
<path transform="translate(1044,701)" d="m0 0h9l3 3v10l-3 2h-9z" fill="#CEC0DC"/>
<path transform="translate(293,183)" d="m0 0h2l7 17v2h-16l3-9z" fill="#F2EDF8"/>
<path transform="translate(285,300)" d="m0 0h3l5 13 1 5-14 1-1-4z" fill="#FCFDF7"/>
<path transform="translate(1284,298)" d="m0 0h1v5l3 1v22h-3v8h-1v-8l-3-1v-21l3-1z" fill="#432267"/>
<path transform="translate(967,295)" d="m0 0h2v4h3v17h-3v9h-2v-7l-3-1v-18h3z" fill="#48286B"/>
<path transform="translate(430,163)" d="m0 0 2 2v53l-1 2h-2v-55z" fill="#FCFDF6"/>
<path transform="translate(862,586)" d="m0 0h2v2l-9 5-11 6-7 4h-2v3l-4 2-5 5-5-2h-33l2-2 15-1h16l6 1 1-2h2l2-4 23-13z" fill="#A886CC"/>
<path transform="translate(200,278)" d="m0 0 2 1-1 60 3-1h40l2-10h-29v-1h30v13h-47z" fill="#3A185F"/>
<path transform="translate(405,176)" d="m0 0h1v30l-5-3-3 1 1-8v-13l4-1-1-3h2z" fill="#F9F7FB"/>
<path transform="translate(1160,321)" d="m0 0 1 4h3v21l-2 1-1 7h-1v-8h-3v-21h3z" fill="#432266"/>
<path transform="translate(440,159)" d="m0 0h15v1l-13 1v61h12l1-34h1v37h-16z" fill="#3F1E63"/>
<path transform="translate(1176,692)" d="m0 0 4 4 4 7v2h-6v16h-3v-16h-6l2-5z" fill="#46256A"/>
<path transform="translate(656,663)" d="m0 0 3 1-10 8-11 8-2 6-1 1-7-1-1-4-21-7v-2l11 3 6 2h13l18-13z" fill="#6A4D88"/>
<path transform="translate(208,441)" d="m0 0h8l2 1-1 4-7-1 1 2 7 3 1 1v5l-4 3h-6l-4-2v-3h9l-3-2-5-2-1-6z" fill="#E7DBF3"/>
<path transform="translate(1189,696)" d="m0 0h3v16h6l-2 5-5 8-3-3-5-8v-2h6z" fill="#48286B"/>
<path transform="translate(585,304)" d="m0 0 3 3v2l-2 2-1 4-1 2-6 2 2 5-9-1-3-5 8-6 3-3h2l2-4z" fill="#FCFDF6"/>
<path transform="translate(1041,175)" d="m0 0 8 1 1 1v5 4l3-4 3-7h3l-3 9-2 5-7-1-2-4h-2v4h-3v-12z" fill="#DACCE9"/>
<path transform="translate(628,471)" d="m0 0 5 4-1 4-5 2-1 3-4 2-1 3-4 5-3 2-2 3h-2l-1-5 4-2 2-5 2-2h3l-2-5 6-1h2z" fill="#FCFDF6"/>
<path transform="translate(1188,280)" d="m0 0 1 4h3v20h-3v7h-1v-7h-3v-20h3z" fill="#442468"/>
<path transform="translate(1323,260)" d="m0 0h7v19h-8v-18z" fill="#A11629"/>
<path transform="translate(993,317)" d="m0 0h5l1 1v20h-6l-1-1v-19z" fill="#B6070C"/>
<path transform="translate(952,190)" d="m0 0h35v4h-35z" fill="#DDCCEF"/>
<path transform="translate(952,169)" d="m0 0h35v4h-35z" fill="#DCCBEF"/>
<path transform="translate(823,725)" d="m0 0 2 1v18l-5-1-5-5 1-7 5-5z" fill="#FBB908"/>
<path transform="translate(218,206)" d="m0 0h2l5 8 4 4 1 7h2v3h-5l-3-10-3-1v9l-1 2-4-1 1-10v-7z" fill="#FCFDF6"/>
<path transform="translate(434,302)" d="m0 0 1 4 4-3v3l3-1 1 4v2 9l-5 1-5-1z" fill="#F8F5F6"/>
<path transform="translate(546,292)" d="m0 0h11l5 5-2 5h-12v-2h-2l-1-7z" fill="#FCFDF7"/>
<path transform="translate(153,173)" d="m0 0 2 2-1 2v28l1 16 1 1 8 1 1-2 1-12 2-2v18h-16v-50z" fill="#3E1D62"/>
<path transform="translate(1305,169)" d="m0 0h23v4h2v-4h5l-2 1v5h-6-2-15l-5-3z" fill="#765698"/>
<path transform="translate(786,610)" d="m0 0h1l1 69 12-5 4-2 12-2v2l-16 5-12 6h-2z" fill="#9294E7"/>
<path transform="translate(1131,337)" d="m0 0 5 1v22h-6v-22z" fill="#B6070C"/>
<path transform="translate(976,454)" d="m0 0h5l1 2 2-2 5 1 1 3 1-2h4v-2h2v8l-1 1h-5-3l-7-1-4 1-1-2h3l1-2h-2v-3h-2z" fill="#A280C4"/>
<path transform="translate(920,548)" d="m0 0 4 1 1 3-2 3-8 2-25 14-5 3h-2l-1 3 1-5 21-12 12-7 1-3z" fill="#5E3D81"/>
<path transform="translate(1369,454)" d="m0 0h5l1 2 2-2 5 1 1 1h9l1 1v5l-2 1-1-5-1 4h-2l-1-4-2 5h-3l-5-1h-2l-4 1-1-2h3l1-2-2-1v-2h-2z" fill="#9F7EC2"/>
<path transform="translate(1085,175)" d="m0 0 9 2 1 7-4 4h-7v-12z" fill="#C9B9D9"/>
<path transform="translate(717,621)" d="m0 0h2v5l-2-1-5 3-2 3 2 1v6l-1 2h-2l-2-4-3 1v7h-3l-1-3v-7l13-10z" fill="#ACB4EE"/>
<path transform="translate(862,584)" d="m0 0 3 1-14 8-20 12-1 2h-2l-1 3-5-1v-2l-2-1h2l1-3 9-2 23-13z" fill="#5D3B7F"/>
<path transform="translate(1007,330)" d="m0 0h6v18l-6-1-1-1v-15z" fill="#A8111F"/>
<path transform="translate(467,472)" d="m0 0 3 1-10 5h-97v-1l94-1z" fill="#B08FD7"/>
<path transform="translate(554,547)" d="m0 0 5 2-1 4-4 2-2 4-3 3 2 6 4 3v2l-4-1-7-7v-3l4-4-1-5 4-2z" fill="#FCFDF6"/>
<path transform="translate(527,278)" d="m0 0h1l1 60h11l-1-16 2-2 1 1v19h-15z" fill="#3A185F"/>
<path transform="translate(319,275)" d="m0 0h53v1l-21 1h-26l-3 2-1 8h18v1l-20 1z" fill="#3E1D62"/>
<path transform="translate(445,149)" d="m0 0h14l3 3 1 4-2 1-2-1-16-1-2-1 2-4z" fill="#FCFDF6"/>
<path transform="translate(650,455)" d="m0 0h3l-2 5-2 2-4 2-3 3-2 4-6 4-2-4 7-6 1-8 3-1 2 2 4-1z" fill="#FCFDF6"/>
<path transform="translate(293,441)" d="m0 0h15v4h-5v13l-4 1-1-13-5-1z" fill="#E3D6F1"/>
<path transform="translate(757,438)" d="m0 0h4l1 3-4 5 1 3 5-2v5l-5 1-1 2h-5l-1-5-2-1 2-4h2l2-5z" fill="#FCFDF6"/>
<path transform="translate(1298,283)" d="m0 0h1v7h3v14h-3v11h-1v-11h-3v-14h3z" fill="#45216A"/>
<path transform="translate(271,441)" d="m0 0h14v4h-5v14h-4v-14h-5z" fill="#E7DAF5"/>
<path transform="translate(221,441)" d="m0 0h14v4h-5v13l-4 1v-14h-5z" fill="#E4D8F2"/>
<path transform="translate(1270,322)" d="m0 0h2v2l3 1v11l-3 1-1 5h-1v-5h-3v-12l3-1z" fill="#48286B"/>
<path transform="translate(1105,342)" d="m0 0 4 4v15h-3l-1 2v-2l-3-1v-14h3z" fill="#432267"/>
<path transform="translate(823,472)" d="m0 0h14l3 3-16 3h-10l-2-2v-2l2-1z" fill="#FCFDF6"/>
<path transform="translate(277,275)" d="m0 0h19l2 4-1 4-2-6h-17l-2 9-4 8-2 9h-2l-2 5-1-3 11-28z" fill="#452568"/>
<path transform="translate(1337,182)" d="m0 0h5l3 4-1 6-5 3-4-2-1-2v-6z" fill="#DAC8ED"/>
<path transform="translate(952,180)" d="m0 0h36v3h-36z" fill="#FBF9FC"/>
<path transform="translate(1249,691)" d="m0 0h71v1l-68 1-5 3-1 2-1 20h-1v-22z" fill="#441C6D"/>
<path transform="translate(459,187)" d="m0 0 5 5 4 5 2 1 3 6h2l2 6 9 11 1 2 14 1v1h-16l-14-19-12-17z" fill="#4A2B6C"/>
<path transform="translate(1365,182)" d="m0 0 6 1 1 2v7l-2 2h-6l-3-5 2-6z" fill="#dce"/>
<path transform="translate(325,212)" d="m0 0 10 1 1 14-1 2-4-2-3-5-3-7z" fill="#FAFAF5"/>
<path transform="translate(238,161)" d="m0 0 5 1 7 6 3 7v12l-4 8-6 5-3-1 5-4h2l2-5 1-3v-11l-3-7-4-2-2-4h-3z" fill="#422166"/>
<path transform="translate(1279,701)" d="m0 0h8l1 4-7-1 1 2 6 3v6l-2 1h-7l-2-3 3-1 6 1-1-2-8-3v-5h2z" fill="#E8DEF0"/>
<path transform="translate(594,275)" d="m0 0h16l13 23 4 8-1 3-7-11-4-9-6-10v-2l-13 1-2 2z" fill="#401E64"/>
<path transform="translate(548,174)" d="m0 0h3v4l7 1 4 2-1 3-9-1-5-1h-3l-3-4 3-1v-2z" fill="#FCFDF6"/>
<path transform="translate(1058,701)" d="m0 0h3l1 9 1 2 4-1 1-10h3v12l-4 3-7-1-2-3z" fill="#E3D4F3"/>
<path transform="translate(479,466)" d="m0 0h1l-1 11-6 4-8-1 1-4 1-2h5l3-1 1-4z" fill="#FCFDF6"/>
<path transform="translate(1174,295)" d="m0 0h1l1 7 2 1v13l-6 1-1-1v-13h3z" fill="#411D66"/>
<path transform="translate(727,609)" d="m0 0 5 1v4l-2 2-7 2-18 13-5 4-2-1 4-4 18-13 5-5z" fill="#5E427D"/>
<path transform="translate(680,619)" d="m0 0 1 3-4 5 1 4 2 2-2 4 2 1v3h-3l-2-1v-7l-8 1 6-7z" fill="#B3CDEF"/>
<path transform="translate(786,385)" d="m0 0 7 1v2l-5 3-11 3h-10l1-3 11-2z" fill="#FCFDF6"/>
<path transform="translate(246,197)" d="m0 0 6 1-3 5 1 2 3 3 1 3-2 2-4-2-1-4h-4l-3-3v-3z" fill="#FCFDF6"/>
<path transform="translate(1016,176)" d="m0 0h9v7h-5v2h6l-1 3h-9z" fill="#E1D2F1"/>
<path transform="translate(1146,334)" d="m0 0h2v3l3 1v7l-3 4v7h-2v-10l-3-1v-7l3-1z" fill="#8D2849"/>
<path transform="translate(407,291)" d="m0 0 26 1-3 5-4-1v-2l-15 1-5 4-2-1 1-5z" fill="#FCFDF6"/>
<path transform="translate(725,608)" d="m0 0h6l-4 2-4 6-15 11-2-1 6-7 2-2 2-4h4v-3z" fill="#AD9FDF"/>
<path transform="translate(269,444)" d="m0 0 7 1v14h5l-2 2-3 2-1-4-3-1v-6-3l-1 3-1 1 1 4h-3l-2-5 2-2z" fill="#4B1F76"/>
<path transform="translate(500,280)" d="m0 0 4 2 7 7 4 9 1 4v11l-3 3v-15l-3-3h2v-2h-2l-2-5-5-5-3-4z" fill="#411F65"/>
<path transform="translate(1291,702)" d="m0 0h10v2l-6 1-1 2h8v3h-8v3h7v2h-10z" fill="#F0EBF3"/>
<path transform="translate(1320,691)" d="m0 0h34l5 4 1 3v22l-2-4-1-18-5-5-32-1z" fill="#4C2076"/>
<path transform="translate(990,529)" d="m0 0 5 2 1 1-1 7-5 2-4-4 1-6z" fill="#FEFEFE"/>
<path transform="translate(1133,332)" d="m0 0h1v5l-3 1-1 22h6l-1-23h2v24l-3 9h-2v-9h-3v-24l4-1z" fill="#8B6BAD"/>
<path transform="translate(1300,167)" d="m0 0h1v7l-3 1h-9l-1-3-2 3-1-2h-3v-2h4v-3l8 1z" fill="#775897"/>
<path transform="translate(376,713)" d="m0 0h4l-2 11-5 14-3 11-2 3 1-11 5-15 1-2z" fill="#FCFDF7"/>
<path transform="translate(1151,529)" d="m0 0 4 1 2 2v6l-4 3-5-2-1-5 2-4z" fill="#FEFEFE"/>
<path transform="translate(238,443)" d="m0 0h2l-1 5-4 11-1-4h-2l-1 4-2-1 1-13h5z" fill="#492271"/>
<path transform="translate(400,202)" d="m0 0 6 3h1l1 19-1 2-2-1-2-3v-16h-6v-2h3z" fill="#FBFBF5"/>
<path transform="translate(1326,182)" d="m0 0h5l1 3h-5l4 2 2 4-4 4-5-2-1-1v-7z" fill="#DFCFF0"/>
<path transform="translate(546,187)" d="m0 0h29v5l-2-1v-2h-18l-5-1v2h-2v5l1 1 10 1v1h-13z" fill="#3A185F"/>
<path transform="translate(1e3 529)" d="m0 0 4 1 1 2v6l-3 3-4-1-2-2v-6l1-2z" fill="#FEFEFE"/>
<path transform="translate(258,308)" d="m0 0 1 3-3 12-3 2-3-1-2 1-2-1v-3l5-3 3-7 4-1z" fill="#FCFDF6"/>
<path transform="translate(575,529)" d="m0 0h5l-6 7-4 4-2 5-2 2-4-1-1-2 3-1v-5l6-4 4-2z" fill="#FCFDF6"/>
<path transform="translate(659,483)" d="m0 0 4 2 3 5 9 9-3 1-6-3-4-5v-2l-4-1-2-4h3z" fill="#FCFDF6"/>
<path transform="translate(1285,181)" d="m0 0 6 2-1 2h-3v2l4 2-1 5-4 2-4-3v-2l3-1-3-2 1-5z" fill="#D9CAE9"/>
<path transform="translate(1076,175)" d="m0 0 6 2-1 2-5-1v2l5 1 1 5-2 2h-6l-2-1 1-3h5l-5-2-1-4z" fill="#E1D2F1"/>
<path transform="translate(395,676)" d="m0 0 1 4-7 14-5 12-2 2v-8l4-4 3-13 3-5z" fill="#FCFDF6"/>
<path transform="translate(1552,381)" d="m0 0 3 1 1 2v10l-1 3h-2v13h-1l-1-13v-14z" fill="#FCFDF6"/>
<path transform="translate(1256,335)" d="m0 0 4 1v14l-6-1v-13z" fill="#B7070C"/>
<path transform="translate(649,303)" d="m0 0h1l1 34 9 2v1h-12v-32z" fill="#3A185F"/>
<path transform="translate(545,199)" d="m0 0h14v9l-7 3h-8l-3-2 13-3 1-2-1-3-9-1z" fill="#EBE0F7"/>
<path transform="translate(516,164)" d="m0 0 1 2 3 1-4 3h-3l-1 12-4 3-1-5 2-5 2-10z" fill="#FCFDF6"/>
<path transform="translate(285,158)" d="m0 0h18l1 4h-3v-2h-15l-2 7-1 4-3 6h-2l1-6 5-12z" fill="#4B2C6D"/>
<path transform="translate(470,428)" d="m0 0 6 5 4 8 1 5v8l-4 12-4 3 2-6 3-8v-8l-3-11-5-6z" fill="#B299E0"/>
<path transform="translate(340,290)" d="m0 0 4 2-2 1v29l1 16 3 2h-6z" fill="#3A185F"/>
<path transform="translate(239,204)" d="m0 0 3 1 12 17v3h-17l-1-3h15l-4-5v-2l-2-1-5-5z" fill="#48286A"/>
<path transform="translate(1036,175)" d="m0 0h2v11l-3 2h-5l-3-3v-9h3l1 7 3 1 1-8z" fill="#E6D8F5"/>
<path transform="translate(1073,701)" d="m0 0 4 1 3 4 3-5h3l-1 5-3 4-1 6h-3l-2-8-3-5z" fill="#E4D7F2"/>
<path transform="translate(1060,176)" d="m0 0h3l1 8 3-1 1-7h3v9l-3 3-7-1-1-2z" fill="#EADEF6"/>
<path transform="translate(487,606)" d="m0 0h11l13 4 1-2h3v4l2 2-9-2-22-4z" fill="#FCFDF7"/>
<path transform="translate(723,601)" d="m0 0 1 3h5l2 4-7 2h-4l1 4-5-1-2 6-1-4 6-8z" fill="#ABC0EC"/>
<path transform="translate(1062,370)" d="m0 0h5l1 6-1 7-3 1-3-2v-11z" fill="#B7070C"/>
<path transform="translate(285,300)" d="m0 0h3l2 7-5-2 1 8-2 2 2 4h-6l-1-4z" fill="#ECE3F5"/>
<path transform="translate(523,275)" d="m0 0h2v49l-2-2v-24l-1-22z" fill="#FEFEFE"/>
<path transform="translate(912,720)" d="m0 0 3 4 1 4-5 5h-3l-2-10z" fill="#3A185F"/>
<path transform="translate(259,205)" d="m0 0h2l1 3-1 4h2l-1 5-2-1-2 4h-2l-2-5 1-5 3-4z" fill="#F8F6F5"/>
<path transform="translate(909,771)" d="m0 0 7 4-2 9-7-3 1-9z" fill="#3A185F"/>
<path transform="translate(271,272)" d="m0 0 2 1v14l-2-1-4 6-2-4 3-10 2-5z" fill="#FAFAF5"/>
<path transform="translate(534,187)" d="m0 0h2l2 10h3l1-3 1 3 2 2-5 1v2l-5-1-3-8z" fill="#FBFCF6"/>
<path transform="translate(694,636)" d="m0 0h2l-1 3-11 7-13 10-8 6-3-1 17-13z" fill="#5E417D"/>
<path transform="translate(587,517)" d="m0 0 2 2-1 4-4 2-2 3-9-1 1-5h7z" fill="#FCFDF6"/>
<path transform="translate(446,305)" d="m0 0h1l2 12 7 14 6 1 1 2 2 2-7-1-9-10-3-7z" fill="#452468"/>
<path transform="translate(136,310)" d="m0 0h1v28h11l2-17h1v19h-15z" fill="#3A185F"/>
<path transform="translate(440,289)" d="m0 0 5 2-2 10-2 4-1-3-5-1 3-5z" fill="#FCFDF6"/>
<path transform="translate(862,586)" d="m0 0h2v2l-9 5-11 6-7 4h-2v3l-6 2 3-5 23-13z" fill="#B08DD4"/>
<path transform="translate(601,500)" d="m0 0 5 3-4 6-5 4h-2l-1 5-4-2 4-2-1-4-2-1 8-2z" fill="#FCFDF6"/>
<path transform="translate(155,292)" d="m0 0h12l-4 2 3 7-5 1v-3l-5-1-1-1z" fill="#FCFDF6"/>
<path transform="translate(684,645)" d="m0 0 2 1-2 6-4 2h-4l-1 4-8 1 5-5z" fill="#B8B4EA"/>
<path transform="translate(513,185)" d="m0 0h1l2 16 3 3v4l5 3 1 6-7-6-4-8-2-7v-9z" fill="#47266B"/>
<path transform="translate(200,151)" d="m0 0 4 1v2h15v1l-18 1-6 2-3 2-4-3v-4l9 1z" fill="#FCFDF6"/>
<path transform="translate(573,327)" d="m0 0 5 5 5 7v2h-18l-1-3h13v-5h-2z" fill="#48286B"/>
<path transform="translate(374,183)" d="m0 0 4 1 2 5-1 9-5 2v-12l-1-3z" fill="#FCFDF6"/>
<path transform="translate(911,670)" d="m0 0v3l-16 5-9 5-3 1 1-4 18-8z" fill="#B08DD4"/>
<path transform="translate(834,669)" d="m0 0 13 1 10 3v2h6l1 4-19-6-10-1z" fill="#B08DD4"/>
<path transform="translate(366,441)" d="m0 0h3v18h-4v-17z" fill="#EDE3F8"/>
<path transform="translate(1229,304)" d="m0 0 2 4 2 1v8h-3v10h-1v-10l-3-1v-7h3z" fill="#49286C"/>
<path transform="translate(272,175)" d="m0 0 4 2-1 7-2 3-1-1-4 5-2-4h2l-1-3 4-5z" fill="#F6F4F5"/>
<path transform="translate(1316,701)" d="m0 0h3l1 4-1 8h8v3h-11z" fill="#DED1EB"/>
<path transform="translate(701,496)" d="m0 0 1 3-1 2 5 1v5l-9-1v-2l-3 1 2-5 1-3z" fill="#FCFDF6"/>
<path transform="translate(1281,317)" d="m0 0h7v9h-3v8h-1v-8l-3-1z" fill="#47266A"/>
<path transform="translate(1109,179)" d="m0 0h15l1 5h-3-2v-2h-2v3h-4v-3l-2 3h-2z" fill="#C1A0E5"/>
<path transform="translate(405,319)" d="m0 0 4 1v13l-2 5-2-1-1-17z" fill="#FCFDF6"/>
<path transform="translate(1352,182)" d="m0 0h7v2h-5l1 2 5 2v5l-6 2-3-2v-2h6v-1l-6-2v-5z" fill="#D6C3EB"/>
<path transform="translate(405,340)" d="m0 0h2l1 7-4 1h-10l-4-3 1-1h8l5-1z" fill="#FCFDF6"/>
<path transform="translate(1352,282)" d="m0 0 4 1 1 2v6l-2 2h-5v-10z" fill="#B4080F"/>
<path transform="translate(468,275)" d="m0 0 3 1-7 4-3 4-5 2-4 5-3 6h-2l2-6 7-9 10-6z" fill="#432167"/>
<path transform="translate(437,686)" d="m0 0 10 1-6 8-5-2-1-4z" fill="#A22D27"/>
<path transform="translate(883,684)" d="m0 0 9 6-3 3h-2l-1 2-8-7z" fill="#B37F02"/>
<path transform="translate(656,663)" d="m0 0 3 1-10 8-11 8-2 6-1 1-7-1 1-4v3h5l1-5 5-5 14-10z" fill="#765896"/>
<path transform="translate(490,641)" d="m0 0 7 1 4 2-2 2h-16l2-4z" fill="#C6ECF2"/>
<path transform="translate(687,632)" d="m0 0h3v2h-2v3l6-2-1 3-11 8h-2v-3l3-1v-4l1-4z" fill="#A8B6EF"/>
<path transform="translate(717,551)" d="m0 0 1 2h2l-1 4-5 5h-3l-1-7 5-3z" fill="#FCFDF6"/>
<path transform="translate(496,335)" d="m0 0m-1 1m-30 1 10 2h10l10-2-1 3-8 2h-11l-10-3z" fill="#452568"/>
<path transform="translate(531,220)" d="m0 0 13 3h10l1-1h7l-1 2-8 2h-10l-10-3-2-1z" fill="#452568"/>
<path transform="translate(459,197)" d="m0 0 4 1 4 5v3l-3 3-2 7-2-4 1-8-2-4z" fill="#FCFDF6"/>
<path transform="translate(814,670)" d="m0 0h2v2l-16 5-12 6h-2v-3l8-4 10-4z" fill="#B08DD4"/>
<path transform="translate(968,529)" d="m0 0 5 1v2h-3l4 4-1 4-4 2-4-4h4l-4-5 1-3z" fill="#F8F5FC"/>
<path transform="translate(296,339)" d="m0 0 5 1 4 4h7l-3 3h-7l-6-3-1-4z" fill="#FCFDF6"/>
<path transform="translate(1257,332)" d="m0 0 1 2h3v17h-2v5h-3v-5h-3v-16l3 1h-2v13l6 1v-14l-3-1z" fill="#8D6DAE"/>
<path transform="translate(314,274)" d="m0 0h3v9l-1 8-2 1-2-5v-10h2z" fill="#FCFDF6"/>
<path transform="translate(658,664)" d="m0 0v3l-5 4-2 3-5 2-9 9v-5l10-8z" fill="#C9A9ED"/>
<path transform="translate(924,552)" d="m0 0 2 4-2 2h-6l-9 4-8 5-3 1-1-2 20-11 6-1z" fill="#A480CA"/>
<path transform="translate(908,499)" d="m0 0h5v3h6l3 2-1 5-2 1-5-6h-4l-2-2z" fill="#FCFDF7"/>
<path transform="translate(293,445)" d="m0 0h5l1 1v13l3-1 1-11h1l1 7 2 4-4 2h-5l-2-4 1-9h-4z" fill="#5A387C"/>
<path transform="translate(455,416)" d="m0 0 8 1 7 2-1 5-3 1-2-2-2-1v-2h-6l-2-1z" fill="#FCFDF6"/>
<path transform="translate(333,292)" d="m0 0h4v27l-2 2v-20l1-3h-2l-2-5z" fill="#FCFDF6"/>
<path transform="translate(300,274)" d="m0 0h3l5 10v7l-2 1v-3h-2l-3-7 1-7z" fill="#FCFDF6"/>
<path transform="translate(527,275)" d="m0 0h37l7 3-1 2-5-2-7-1h-31z" fill="#3A185F"/>
<path transform="translate(1413,190)" d="m0 0 1 3-6 4-3 1h-8l-6-3-2-4h3l2 3 9 1 6-2z" fill="#DCCCEE"/>
<path transform="translate(910,554)" d="m0 0 4 1-19 11-10 6h-2v-6l1 3 12-6 8-5 4-1v-2z" fill="#AF8DD4"/>
<path transform="translate(350,445)" d="m0 0h5l3 3-1 5-1 1h-6z" fill="#624680"/>
<path transform="translate(457,338)" d="m0 0 5 2 5 3h5l2 3-3 1-7-2-7-1-2-5z" fill="#FCFDF6"/>
<path transform="translate(1305,169)" d="m0 0h9l1 3 3-2 3 3-2 2h-9l-5-3z" fill="#4E2E71"/>
<path transform="translate(530,652)" d="m0 0 2 1-11 6-14 5-6 3-3-1 5-3z" fill="#664985"/>
<path transform="translate(699,465)" d="m0 0h1v7l-6 5-3 3-2-1v-4l5-2v-5z" fill="#FCFDF6"/>
<path transform="translate(776,418)" d="m0 0 2 4-7 6-1 2-5 3-3-1z" fill="#FEFEFE"/>
<path transform="translate(642,319)" d="m0 0 4 4-2 1-2 6-4 4-2-1 1-5 3-6h2z" fill="#FCFDF6"/>
<path transform="translate(337,222)" d="m0 0 31 1-3 2h-28z" fill="#4C2D6E"/>
<path transform="translate(337,158)" d="m0 0h28l2 2h-28l-1 2z" fill="#4C2D6E"/>
<path transform="translate(506,664)" d="m0 0h5v3l-6 3-3 3h-2l-2-5 4-3z" fill="#D1EDF4"/>
<path transform="translate(305,446)" d="m0 0 3 1 1 5v7l2 2-4 1v-2h-2v2l-4-2 6-2-3-3v-8z" fill="#6A2AAC"/>
<path transform="translate(1337,276)" d="m0 0h6v8l-7 1v-8z" fill="#A11529"/>
<path transform="translate(671,646)" d="m0 0 3 3-5 3-3 3h-3l-2-3v-3l7-2z" fill="#ABC2EE"/>
<path transform="translate(1110,454)" d="m0 0 3 1 1 2 5-1 1-2v9h-5l-2-2-2 1z" fill="#9F7DC1"/>
<path transform="translate(771,427)" d="m0 0 2 1-1 4 1 6-3 3-2-1-2-5-3-2 4-3h3z" fill="#FCFDF6"/>
<path transform="translate(157,340)" d="m0 0 2 1-1 4-6 2h-9v-3h5z" fill="#FCFDF6"/>
<path transform="translate(1315,182)" d="m0 0h5l2 10-4 3-5-1v-2h6l-1-2-3-1v-2h4l-1-2h-5v-2z" fill="#DECEF0"/>
<path transform="translate(366,757)" d="m0 0 1 4-5 19-2-1v-5l1-4 2-10h2z" fill="#FCFDF6"/>
<path transform="translate(1302,704)" d="m0 0h2v9h-10v-3h8v-3h-8v-2z" fill="#9F182C"/>
<path transform="translate(478,673)" d="m0 0h2v2l-30 12-2-1 5-3z" fill="#654785"/>
<path transform="translate(521,652)" d="m0 0 4 1v2l-17 7h-5l4-3 8-3v-3z" fill="#CAD7F0"/>
<path transform="translate(1215,315)" d="m0 0 4 1v10h-6v-8z" fill="#B7070C"/>
<path transform="translate(439,618)" d="m0 0 6 1-5 5-10 8h-2v2h-2l2-5h3l1-3 4-1 2-6z" fill="#FCFDF7"/>
<path transform="translate(701,574)" d="m0 0h2l3 4-2 6-4 1-2-2 1-7z" fill="#FCFDF6"/>
<path transform="translate(749,445)" d="m0 0m-1 1m-1 1m-1 1m-1 1m-1 1m-1 1m-1 1 1 3-3 5-5 3h-2v2h-2l-2 4-3-1z" fill="#FEFEFE"/>
<path transform="translate(483,440)" d="m0 0 5 2-1 12-3 1-1-5 1-3h-2z" fill="#FCFDF6"/>
<path transform="translate(212,204)" d="m0 0h2v20l-1 1h-15v-1l13-1z" fill="#523473"/>
<path transform="translate(535,647)" d="m0 0 5 2 1 4-3 2h-8l3-7z" fill="#B31E14"/>
<path transform="translate(718,486)" d="m0 0 2 1v6l-8-1h-3l1-5z" fill="#FCFDF6"/>
<path transform="translate(1240,454)" d="m0 0 5 1v3l2-4v2l5 1v5l-2-1-2-3-1 5h-3l-5-1 1-2h3l-2-2 1-2-3-1z" fill="#B290D5"/>
<path transform="translate(259,424)" d="m0 0 8 1 2 3-3 3-8-2-2-4z" fill="#6728A7"/>
<path transform="translate(382,268)" d="m0 0 5 1-2 4h-3v12l-1-4h-2v-10z" fill="#FCFDF6"/>
<path transform="translate(230,152)" d="m0 0h9l2 2v3l-13-1-2-2z" fill="#FCFDF6"/>
<path transform="translate(837,596)" d="m0 0m-3 1h3l-1 3-6 3-7 1-1 2-4-1 2-3 9-3z" fill="#A683C9"/>
<path transform="translate(711,572)" d="m0 0 2 1-1 7-3 3-5 1 2-6 3-5z" fill="#AABBEF"/>
<path transform="translate(860,472)" d="m0 0h6l1 5-3 2-6-1-2-2z" fill="#FCFDF6"/>
<path transform="translate(675,467)" d="m0 0 3 1 4 5 2 1-1 4-6-2-3-3z" fill="#FCFDF7"/>
<path transform="translate(273,341)" d="m0 0 2 2-2 4-6 2-6-3v-2l9-1z" fill="#FCFDF6"/>
<path transform="translate(511,318)" d="m0 0h2l-1 6-6 8-5 4-3-1 8-7 3-6v-2h2z" fill="#422166"/>
<path transform="translate(436,278)" d="m0 0h1v11l-36-1v-1l33-1z" fill="#3A185F"/>
<path transform="translate(509,192)" d="m0 0 3 1 1 7h-2l1 7-4 1-1-5 1-2z" fill="#F8F6F6"/>
<path transform="translate(825,478)" d="m0 0h35v2h5v1h-9l-5-1h-26z" fill="#9598E8"/>
<path transform="translate(911,756)" d="m0 0h9l-1 6h-8l-1-2z" fill="#3A185F"/>
<path transform="translate(666,663)" d="m0 0h10l6 1 2 1-1 1-12 1-6-2-1 3h-2v-2h2v-2z" fill="#ABC4EE"/>
<path transform="translate(1128,505)" d="m0 0 3 3v2h2l1-5 3 1v6l-2 2-1-3-1 2h-2l-1-2-1 3h-2v-8z" fill="#58397A"/>
<path transform="translate(616,312)" d="m0 0 6 5 1 6 5 9 3-2-1 5h-3l-11-20z" fill="#442368"/>
<path transform="translate(399,316)" d="m0 0h2v24h-5l1-2h2z" fill="#3A185F"/>
<path transform="translate(314,302)" d="m0 0 4 2-1 5-1 6-5-1 2-10z" fill="#F9F9F5"/>
<path transform="translate(480,273)" d="m0 0 13 2 5 3-1 2-8-3h-14v-3z" fill="#401F64"/>
<path transform="translate(605,674)" d="m0 0 22 7 1 4-8-3v-2l-10-1-5-3z" fill="#C7A8EA"/>
<path transform="translate(455,188)" d="m0 0h1v36h-5l1-2h2z" fill="#3A185F"/>
<path transform="translate(459,187)" d="m0 0 5 5 4 5 2 1 3 6h2l1 3-2 3-14-19z" fill="#422166"/>
<path transform="translate(373,445)" d="m0 0 3 3v11h-4v-13z" fill="#F4F0F8"/>
<path transform="translate(578,309)" d="m0 0 2 1-1 5-5 3-2 1 2 3h-4l-2-4 8-6z" fill="#EDE4F6"/>
<path transform="translate(278,268)" d="m0 0h17v3h-17z" fill="#FCFDF6"/>
<path transform="translate(1476,481)" d="m0 0h5v3l4 1-2 2-8 1-2-3 1-2h2z" fill="#F8F7F5"/>
<path transform="translate(254,336)" d="m0 0 1 2h12l3-1v4h-18v-4z" fill="#4A2B6C"/>
<path transform="translate(641,287)" d="m0 0 1 3-7 13-2 6-3-1 2-6 8-14z" fill="#422066"/>
<path transform="translate(136,275)" d="m0 0h34v1l-20 1-8 1-3-1-3 1z" fill="#3A185F"/>
<path transform="translate(532,268)" d="m0 0h12l10 1v1l-9 1h-15v-2z" fill="#FCFDF6"/>
<path transform="translate(687,661)" d="m0 0h1l2 8-18-1 3-2 8-1z" fill="#A3A8E9"/>
<path transform="translate(1360,507)" d="m0 0h6v8l-1 1h-5l4-1-5-3z" fill="#6E4D91"/>
<path transform="translate(911,740)" d="m0 0h8v6h-8z" fill="#3A185F"/>
<path transform="translate(270,460)" d="m0 0 1 2 5 1v4l-9 1-1-4 4-2z" fill="#4A1D77"/>
<path transform="translate(1536,442)" d="m0 0 3 1 1 4-5 3h-2v2l-6 1 3-5 5-1z" fill="#FCFDF6"/>
<path transform="translate(372,275)" d="m0 0h4v14h-16v-1l14-1v-10h-2z" fill="#4C2A70"/>
<path transform="translate(1068,701)" d="m0 0h3v12l-2 2-4-1 2-3z" fill="#EFE9F6"/>
<path transform="translate(728,568)" d="m0 0 4 1 2 6 2 1-5 5v-4l-3-2z" fill="#ABC4EE"/>
<path transform="translate(608,501)" d="m0 0 2 2-15 15-1-3 9-9 2-4z" fill="#FEFEFE"/>
<path transform="translate(188,290)" d="m0 0h2l1 2v11l-3 6-2-1 1-5 1-2z" fill="#432167"/>
<path transform="translate(470,179)" d="m0 0 3 1 12 17-1 2-3-2v-2h-2v-4h-2l-6-9z" fill="#432267"/>
<path transform="translate(1298,182)" d="m0 0h8l-1 6-3 6h-3l2-6 2-4-5 1z" fill="#DFCEF2"/>
<path transform="translate(614,672)" d="m0 0 10 1-4 1v2l4 1 1 2-11-3-6-2v-1z" fill="#C5C0ED"/>
<path transform="translate(627,646)" d="m0 0 9 1-3 4-3 1h-12l2-2 6-1-1-2z" fill="#FCFDF6"/>
<path transform="translate(554,201)" d="m0 0 1 3 2 1-5 3-9 1-1-3 7-1 2-3z" fill="#FCFDF6"/>
<path transform="translate(440,158)" d="m0 0h16l9 11v2h-2v-2l-3-1-5-7v-2h-15z" fill="#4E2F70"/>
<path transform="translate(431,699)" d="m0 0h17l1 2-10-1-1 4-4 2v-3l-3 1z" fill="#59377C"/>
<path transform="translate(676,647)" d="m0 0 2 1-11 9-6 3 1-6h6l1-3z" fill="#C6A8EB"/>
<path transform="translate(550,318)" d="m0 0 4 2 6 10 4 2v6l-5-5-9-13z" fill="#432266"/>
<path transform="translate(574,205)" d="m0 0h1v10l-6 5-5 1 1-3h2v-2l6-1v-8z" fill="#3F1E63"/>
<path transform="translate(1017,175)" d="m0 0h13l-3 1v8l-1 1h-6v-2h5v-3h-5v-1h5v-3h-8z" fill="#6D4E8E"/>
<path transform="translate(555,150)" d="m0 0h4v2l4 1-1 3h-7l-3-1 2-4z" fill="#FCFDF6"/>
<path transform="translate(416,150)" d="m0 0h6l3 5h-11v-4z" fill="#FCFDF6"/>
<path transform="translate(640,671)" d="m0 0h5l-5 5-4 3-6-1 3-3h5z" fill="#CBACEF"/>
<path transform="translate(505,648)" d="m0 0 5 2 1 2-4 2-6-2-3 2v-5z" fill="#BFDFF2"/>
<path transform="translate(823,603)" d="m0 0h5l1 4-2 3-5-1v-2l-2-1h2z" fill="#B7070C"/>
<path transform="translate(1139,529)" d="m0 0 6 1v1h-5v3l3-1 3 3-1 4-4 1-3-1v-2h5v-2l-5-1v-5z" fill="#FEFEFE"/>
<path transform="translate(791,411)" d="m0 0 3 1v9l-1 2-4-2z" fill="#FCFDF6"/>
<path transform="translate(585,340)" d="m0 0h5v2l2 1-3 3-3 1-5-2z" fill="#FCFDF6"/>
<path transform="translate(1446,190)" d="m0 0 2 2v11l-2 6h-1v-18z" fill="#FCFDF6"/>
<path transform="translate(227,177)" d="m0 0 5 5-1 3h-7l-1-2z" fill="#FCFDF6"/>
<path transform="translate(630,679)" d="m0 0h5l1 5-2 2-5-1-1-4z" fill="#B7070C"/>
<path transform="translate(725,469)" d="m0 0v3 2l-3 3-6 2 6-7z" fill="#FEFEFE"/>
<path transform="translate(1056,175)" d="m0 0h3l-4 12-4 1 1-5z" fill="#E4D7F2"/>
<path transform="translate(545,781)" d="m0 0 11 1v3l-5 1h-7z" fill="#FCFDF6"/>
<path transform="translate(864,677)" d="m0 0 11 6h6l2-2-1 5-4 1-6-3-8-5z" fill="#634782"/>
<path transform="translate(1313,507)" d="m0 0 5 1 1 3-2 3-5-1-1-4z" fill="#7B5B9D"/>
<path transform="translate(987,507)" d="m0 0 5 1 1 4-2 2-5-1-1-3z" fill="#7B5C9B"/>
<path transform="translate(1057,454)" d="m0 0h1v9h-5l-1-1v-5l5-1z" fill="#9F7EC2"/>
<path transform="translate(1446,351)" d="m0 0 13 2v2l-9 1-4-2z" fill="#FCFDF6"/>
<path transform="translate(300,330)" d="m0 0h2l3 7 1 2h16v2h-18l-4-8z" fill="#513272"/>
<path transform="translate(643,780)" d="m0 0h7l-2 1 1 3-1 2h-8l1-4 2 1z" fill="#FCFDF6"/>
<path transform="translate(1305,702)" d="m0 0h2l1 10 6 1v2h-9z" fill="#FAF8F9"/>
<path transform="translate(785,680)" d="m0 0 1 4-6 4-3 3-8 7-1-3 6-5h2v-2l8-6z" fill="#634782"/>
<path transform="translate(727,609)" d="m0 0 5 1v4l-2 2-5-1 1-5z" fill="#B7070C"/>
<path transform="translate(1336,507)" d="m0 0 5 1 1 4-2 2-5-1v-5z" fill="#7C5C9E"/>
<path transform="translate(1293,505)" d="m0 0h2l3 6-1 3-5-1h-3z" fill="#634185"/>
<path transform="translate(968,505)" d="m0 0h2l3 6-1 3-5-1h-3z" fill="#634087"/>
<path transform="translate(995,454)" d="m0 0h2v8l-1 1h-5v-7h4z" fill="#9A79BC"/>
<path transform="translate(777,418)" d="m0 0 5 4-1 4-2 1h-6l3-5h2z" fill="#F5F8F7"/>
<path transform="translate(617,292)" d="m0 0 3 1 7 13-1 3-7-11z" fill="#422166"/>
<path transform="translate(291,181)" d="m0 0h2l-1 7-4 10h-2l2-9z" fill="#432266"/>
<path transform="translate(535,159)" d="m0 0h6l-5 4-7 2-6 5-2-1 8-7z" fill="#411F66"/>
<path transform="translate(691,762)" d="m0 0h1l1 5v9l1 3h-4v-11z" fill="#AAB5EF"/>
<path transform="translate(220,453)" d="m0 0 1 4-2 4-7 1-4-2v-1l9-2z" fill="#3D1B62"/>
<path transform="translate(289,309)" d="m0 0 3 1 2 5v3h-7l3-4-3-1z" fill="#F5F1FA"/>
<path transform="translate(544,287)" d="m0 0h18l1 5-6-2-15-1z" fill="#3D1B62"/>
<path transform="translate(646,268)" d="m0 0h16v3h-11l-7 2-1-4z" fill="#FCFDF6"/>
<path transform="translate(1285,181)" d="m0 0 6 2-1 2h-3l-1 5-4-2 1-5z" fill="#D9C8EB"/>
<path transform="translate(539,653)" d="m0 0 9 2 3 2h-3v2l-5-1-5-2z" fill="#CCD0ED"/>
<path transform="translate(414,646)" d="m0 0 1 3-6 7-3 5-1-2 1-6 5-3 1-2h2z" fill="#FCFDF7"/>
<path transform="translate(499,645)" d="m0 0 3 1-3 1-1 14h-1l-1-13-14-1v-1z" fill="#BFC7F1"/>
<path transform="translate(975,507)" d="m0 0h8l1 1v6h-1v-5h-3v5l-2-1-1-4-1 5-2-1v-5z" fill="#5D3F7D"/>
<path transform="translate(192,339)" d="m0 0 5 2 2 1v3l-5 1-3-2z" fill="#FCFDF6"/>
<path transform="translate(279,275)" d="m0 0h17l2 4-1 4-2-6h-17z" fill="#3C1A60"/>
<path transform="translate(224,205)" d="m0 0 5 2-1 3h2v3h2l3 5v2l-3-1-8-12z" fill="#401F64"/>
<path transform="translate(189,174)" d="m0 0 4 1v15l-2-1z" fill="#FCFDF6"/>
<path transform="translate(1279,701)" d="m0 0h8l1 4-7-1-1 2-1-1-2 3v-5h2z" fill="#C7B2DC"/>
<path transform="translate(579,530)" d="m0 0 2 2-11 11-1-3 7-8z" fill="#FEFEFE"/>
<path transform="translate(747,415)" d="m0 0h4v2l2 1-2 3-4 1-2-1 1-5z" fill="#FCFDF6"/>
<path transform="translate(496,318)" d="m0 0h2l-1 5-12 6-2-2 8-4z" fill="#432266"/>
<path transform="translate(548,657)" d="m0 0h6l-1 2 8 3v2l-6-1-7-3z" fill="#C7E3F1"/>
<path transform="translate(990,531)" d="m0 0 4 1v5l-4 2-2-2 1-5z" fill="#B997DD"/>
<path transform="translate(324,340)" d="m0 0h2l2 3-1 4-6-1-1-3z" fill="#FCFDF6"/>
<path transform="translate(324,216)" d="m0 0 3 1 2 5v3h-18v-1l14-1z" fill="#503271"/>
<path transform="translate(701,590)" d="m0 0h1v5l-7 6-1-2 5-8z" fill="#ACBDEF"/>
<path transform="translate(920,548)" d="m0 0 4 1 1 3-2 3-5-1 1-5z" fill="#B7070C"/>
<path transform="translate(1151,531)" d="m0 0 4 1v5l-4 2-2-5z" fill="#B997DD"/>
<path transform="translate(1e3 531)" d="m0 0 4 1v6l-4 1-1-1v-6z" fill="#B895DC"/>
<path transform="translate(485,320)" d="m0 0 1 3-4 4-5-1-1-3 9-1z" fill="#FCFDF8"/>
<path transform="translate(612,315)" d="m0 0 1 2h2l1 9-3 1-1-1-1-10z" fill="#FCFDF6"/>
<path transform="translate(262,216)" d="m0 0 1 4v3l13 1v1h-17l1-6z" fill="#513272"/>
<path transform="translate(570,170)" d="m0 0 1 3-8 6-6-4 1-3 4 2v2l5-3z" fill="#442367"/>
<path transform="translate(315,170)" d="m0 0 3 1v8l-1 2-3-1-1-4z" fill="#FCFDF6"/>
<path transform="translate(668,666)" d="m0 0 4 1-1 11h-2l-1-9h-2v-2z" fill="#AFB4EF"/>
<path transform="translate(500,636)" d="m0 0 6 1 4 2 1 3h-5l-6-3z" fill="#BFDFF2"/>
<path transform="translate(842,595)" d="m0 0h2l-1 3-12 7-2 2-1-4z" fill="#5F417E"/>
<path transform="translate(396,446)" d="m0 0h2l2 5 3 1v2l-3 1-5-3z" fill="#6A4F8F"/>
<path transform="translate(269,444)" d="m0 0 4 2h-2v6l-1 1 1 4h-3l-2-5 2-2z" fill="#563479"/>
<path transform="translate(293,440)" d="m0 0h16l1 1v5l-5 1h-2v-2h5v-4h-15z" fill="#60437F"/>
<path transform="translate(496,341)" d="m0 0 4 1-1 4h-9l1-3z" fill="#FCFDF6"/>
<path transform="translate(446,305)" d="m0 0h1l2 12 2 4-1 3-3-3-1-3z" fill="#401F64"/>
<path transform="translate(426,268)" d="m0 0 2 1v2l-3 1-2-1-23-1v-1z" fill="#FCFDF6"/>
<path transform="translate(602,267)" d="m0 0 4 2-1 3-4 1-4-2 1-3z" fill="#FCFDF6"/>
<path transform="translate(315,193)" d="m0 0 3 1 4 11-1 4-6-13z" fill="#401F64"/>
<path transform="translate(1366,184)" d="m0 0 3 1 1 4-2 3h-3l-1-6z" fill="#432266"/>
<path transform="translate(1338,184)" d="m0 0 4 2v5l-4 1-2-4z" fill="#432266"/>
<path transform="translate(283,161)" d="m0 0h1v10l-3 3-1 3h-2l1-6z" fill="#442368"/>
<path transform="translate(616,780)" d="m0 0h5l2 3-1 3-5-1-3-2z" fill="#FCFDF6"/>
<path transform="translate(717,621)" d="m0 0h2v5l-2-1-5 3-5 4-3-1z" fill="#C3A2E7"/>
<path transform="translate(904,492)" d="m0 0 7 1v5l-6-1-2-3z" fill="#FCFDF6"/>
<path transform="translate(255,448)" d="m0 0 3 3h1v7l-4 1z" fill="#EBE3F4"/>
<path transform="translate(1353,279)" d="m0 0h2v2l3 1v12l-3-1 1-2v-6l-1-2h-5v-2z" fill="#9772BE"/>
<path transform="translate(308,214)" d="m0 0 1 3h2l2 5h10l2 2h-14l-3-6z" fill="#3D1C61"/>
<path transform="translate(1058,178)" d="m0 0h1l2 9 8 1-4 2-5-2-2-3-2 1 1-7z" fill="#442268"/>
<path transform="translate(498,780)" d="m0 0 2 1v5h-7l-1-3z" fill="#FCFDF6"/>
<path transform="translate(1383,456)" d="m0 0h9l1 1v5l-2 1-1-5-1 4h-2l-1-4-3-1z" fill="#B290D6"/>
<path transform="translate(447,280)" d="m0 0 4 1-2 6-4 1v-6z" fill="#FCFDF6"/>
<path transform="translate(540,170)" d="m0 0h10v2l-9 2-5 1 2-4z" fill="#432367"/>
<path transform="translate(562,161)" d="m0 0 6 1 7 6-2 1-7-4v-2h-7z" fill="#412065"/>
<path transform="translate(389,162)" d="m0 0h5l4 4v3l-3 1-1-3-2-1z" fill="#FCFDF6"/>
<path transform="translate(389,783)" d="m0 0h7l3 3-7 1-5-1 2-1z" fill="#FCFDF6"/>
<path transform="translate(692,635)" d="m0 0h2l-1 3-11 8h-2v-3l7-4z" fill="#C2A4E8"/>
<path transform="translate(694,617)" d="m0 0h4v2l3 1v4l-4-1-3-3z" fill="#A8B6EF"/>
<path transform="translate(1171,507)" d="m0 0 5 1v3h-4v2l4-1v2h-5l-1-1v-5z" fill="#654685"/>
<path transform="translate(280,445)" d="m0 0h5v2l-2 1-1 9-2 1z" fill="#56327B"/>
<path transform="translate(792,389)" d="m0 0 3 1-1 5-1-4-15 4-4-1z" fill="#ADA5E8"/>
<path transform="translate(580,326)" d="m0 0 4 1 1 6-5-1-1-5z" fill="#FCFDF6"/>
<path transform="translate(464,319)" d="m0 0 9 6 9 3v1l-8-1-7-3v-2h-2z" fill="#411F66"/>
<path transform="translate(216,269)" d="m0 0 4 1 1 6-2 2-4-5z" fill="#FCFDF6"/>
<path transform="translate(1352,182)" d="m0 0h7v2h-5l1 2h2v2l-5 1-1-5z" fill="#E0CFF2"/>
<path transform="translate(1071,176)" d="m0 0 2 2 1 4 5 2-4 1h-2l-3 3-2-1 2-2z" fill="#553577"/>
<path transform="translate(577,783)" d="m0 0 13 1-2 2h-15z" fill="#FCFDF6"/>
<path transform="translate(656,663)" d="m0 0 3 1-10 8-5 2v-2l11-8z" fill="#5D407D"/>
<path transform="translate(1e3 507)" d="m0 0h6l1 6-2 1v-5h-3v5h-2z" fill="#5F437E"/>
<path transform="translate(679,500)" d="m0 0 3 2 1 5-3 1-4-4 1-2z" fill="#FCFDF6"/>
<path transform="translate(210,444)" d="m0 0 5 1v2l6 2-1 2-9-3-2-3z" fill="#47276A"/>
<path transform="translate(334,342)" d="m0 0 8 1-1 3-7 1-1-4z" fill="#FCFDF6"/>
<path transform="translate(303,296)" d="m0 0h2l4 11-1 4-3-4-1-3z" fill="#432167"/>
<path transform="translate(1300,167)" d="m0 0h1v7l-2 1-5-5 3-2z" fill="#735692"/>
<path transform="translate(490,152)" d="m0 0h11l-1 3h-10z" fill="#FCFDF6"/>
<path transform="translate(1496,482)" d="m0 0h2l-2 4-1 1-8-1 2-2z" fill="#FCFDF6"/>
<path transform="translate(259,453)" d="m0 0 4 2 2 3 4 2-4 1-3-1-1-2h-2z" fill="#4D2476"/>
<path transform="translate(405,442)" d="m0 0h2l-1 4-2 1 3 2h-8l-1-4 7-1z" fill="#9A84D8"/>
<path transform="translate(541,290)" d="m0 0h1v14h-2l-1-10-1-2z" fill="#3A185F"/>
<path transform="translate(435,219)" d="m0 0 2 2v3l-1 3-6-2 2-1v-2l-2-1z" fill="#FCFDF6"/>
<path transform="translate(325,212)" d="m0 0 5 1v9h-2l-3-7z" fill="#F0E9F7"/>
<path transform="translate(658,664)" d="m0 0v3l-5 4-2 3h-5l5-5z" fill="#C4A3E8"/>
<path transform="translate(1129,532)" d="m0 0 4 1 2-1v6 3l-4-3v2l-2-1 1-4z" fill="#FEFEFE"/>
<path transform="translate(1299,507)" d="m0 0h2l1 5h1l1-5 2 2-1 5h-5l-1-1z" fill="#5C3D7D"/>
<path transform="translate(1551,363)" d="m0 0 3 1 1 6-1 2-3-1z" fill="#FCFDF6"/>
<path transform="translate(570,222)" d="m0 0h3l-1 5-3 1h-4l2-4z" fill="#FCFDF6"/>
<path transform="translate(393,206)" d="m0 0h2l-1 5-6 6-3-1 5-5 3-4z" fill="#452468"/>
<path transform="translate(1323,185)" d="m0 0 2 4h5l-1 4-4 1-2-2z" fill="#9476B4"/>
<path transform="translate(184,159)" d="m0 0h4v13h-2v-11h-2z" fill="#3A185F"/>
<path transform="translate(515,656)" d="m0 0 3 1-10 5h-5l4-3z" fill="#E7DCF2"/>
<path transform="translate(721,578)" d="m0 0 2 2 3 5v2h-3v-3h-4l1-5z" fill="#A8B6EF"/>
<path transform="translate(601,534)" d="m0 0 2 2-5 5 1 2-4 1-1-3h2v-2h2l2-4z" fill="#FCFDF6"/>
<path transform="translate(1156,507)" d="m0 0h6l1 1v5h-2l-2-4-1 4h-2z" fill="#5E3F7D"/>
<path transform="translate(478,455)" d="m0 0h2l-1 6-3 6-3 2 2-6z" fill="#B095DC"/>
<path transform="translate(1445,458)" d="m0 0 2 1 2 3v5h-4z" fill="#FCFDF6"/>
<path transform="translate(1308,454)" d="m0 0 6 3v5h-2l-1-4-1 4h-2z" fill="#B18ED5"/>
<path transform="translate(285,300)" d="m0 0h3l2 7-5-2-1 3-1-3z" fill="#E1D4EF"/>
<path transform="translate(270,296)" d="m0 0 1 2-1 5h-2l-2 5-1-3 3-8z" fill="#412064"/>
<path transform="translate(434,265)" d="m0 0h3l1 7-4-1-1-4z" fill="#FCFDF6"/>
<path transform="translate(295,181)" d="m0 0 2 1v3h2l1 6 1 4-3-2-3-8z" fill="#401E64"/>
<path transform="translate(1291,709)" d="m0 0 2 1v3h8v2h-10z" fill="#F9F7F8"/>
<path transform="translate(480,633)" d="m0 0h1v6l-4 6-1-4z" fill="#BFDFF2"/>
<path transform="translate(1352,507)" d="m0 0h5l1 1v6l-2-1v-3l-2-1-1 5h-1z" fill="#5E3F7E"/>
<path transform="translate(1179,454)" d="m0 0h5v5l-2 3 2 1h-6l1-3 3-2-1-2h-2z" fill="#D3B5F4"/>
<path transform="translate(1185,454)" d="m0 0h2v2l4 1v6h-1l-1-5-2-1v6l-2-1z" fill="#D3B5F4"/>
<path transform="translate(571,343)" d="m0 0 4 1-2 4-5-1-1-3z" fill="#FCFDF6"/>
<path transform="translate(558,275)" d="m0 0 10 1 3 2-1 2-5-2-7-1z" fill="#422266"/>
<path transform="translate(468,207)" d="m0 0 3 3v2l3 2-1 3 2 1-4-1-1-4h-2l-1-5z" fill="#FCFDF6"/>
<path transform="translate(518,208)" d="m0 0 6 3 1 6-7-6z" fill="#3E1D62"/>
<path transform="translate(304,163)" d="m0 0 2 1 3 8-1 4-4-7z" fill="#422266"/>
<path transform="translate(396,746)" d="m0 0h3l1 4-1 2h-4l-1-5z" fill="#B37F02"/>
<path transform="translate(650,666)" d="m0 0 2 1-6 5-4-2 3-3z" fill="#B8B8EB"/>
<path transform="translate(577,640)" d="m0 0 5 1 1 5-5-1-3-1v-2h2z" fill="#FCFDF7"/>
<path transform="translate(725,534)" d="m0 0h5l-1 4-5 1z" fill="#FCFDF6"/>
<path transform="translate(994,507)" d="m0 0h1l1 5h1l1-5h2v7h-6z" fill="#5F427E"/>
<path transform="translate(657,477)" d="m0 0 2 2v4l-4 2-3-1z" fill="#F7FAF5"/>
<path transform="translate(275,445)" d="m0 0h1v14h5l-2 2-3 2-1-2z" fill="#56337B"/>
<path transform="translate(444,298)" d="m0 0 1 4-1 11-1-2-2-1 1-4 1-7z" fill="#FEFEFE"/>
<path transform="translate(383,222)" d="m0 0 2 1-1 4-5 1-3-2z" fill="#FCFDF6"/>
<path transform="translate(357,200)" d="m0 0 1 2h2l3 5-3 1-3-1z" fill="#FCFDF6"/>
<path transform="translate(246,197)" d="m0 0 2 1-4 5-2 4-2-3v-3z" fill="#E2D5F0"/>
<path transform="translate(1109,179)" d="m0 0 8 1-1 2-3 1-1 2h-2z" fill="#B695DD"/>
<path transform="translate(1305,169)" d="m0 0h9l-3 1-1 4-3-1-2-1z" fill="#8565A6"/>
</svg>
